<?xml version="1.0" standalone="no"?>
<!DOCTYPE svg PUBLIC "-//W3C//DTD SVG 20010904//EN"
 "http://www.w3.org/TR/2001/REC-SVG-20010904/DTD/svg10.dtd">
<svg version="1.0" xmlns="http://www.w3.org/2000/svg"
 width="1024.000000pt" height="1024.000000pt" viewBox="0 0 1024.000000 1024.000000"
 preserveAspectRatio="xMidYMid meet">
<metadata>
Created by potrace 1.14, written by Peter Selinger 2001-2017
</metadata>
<g transform="translate(0.000000,1024.000000) scale(0.100000,-0.100000)"
fill="#000000" stroke="none">
<path d="M1748 8155 c-2 -1 -30 -5 -63 -8 -148 -13 -320 -64 -482 -143 -100
-49 -533 -325 -541 -346 -2 -4 -8 -8 -13 -8 -5 0 -40 -22 -79 -50 -39 -27 -75
-50 -80 -50 -6 0 -10 -4 -10 -10 0 -5 -6 -10 -13 -10 -7 0 -22 -8 -33 -18 -10
-9 -77 -56 -149 -104 -151 -100 -198 -144 -218 -203 -13 -38 -15 -94 -5 -135
8 -31 100 -186 120 -200 4 -3 13 -17 20 -30 8 -14 50 -78 93 -143 44 -65 85
-127 91 -137 39 -70 106 -115 179 -121 38 -3 102 10 137 27 25 13 231 148 253
166 6 5 171 117 368 248 395 264 419 276 537 268 87 -7 164 -44 234 -114 70
-70 99 -131 100 -209 0 -54 -14 -94 -143 -420 -79 -198 -149 -373 -157 -389
-8 -16 -14 -34 -14 -40 -1 -6 -9 -29 -20 -51 -11 -22 -19 -44 -20 -48 0 -5 -6
-23 -14 -40 -16 -35 -166 -406 -170 -422 -2 -5 -8 -23 -15 -40 -7 -16 -37 -93
-67 -170 -31 -77 -60 -149 -65 -160 -5 -11 -54 -135 -110 -275 -55 -140 -146
-367 -201 -505 -56 -137 -109 -270 -118 -295 -9 -25 -22 -58 -28 -73 -7 -16
-12 -30 -12 -31 0 -2 -8 -21 -17 -42 -9 -22 -17 -41 -18 -44 -1 -3 -6 -16 -12
-30 -11 -25 -86 -216 -208 -525 -36 -93 -71 -179 -75 -190 -5 -11 -25 -60 -45
-110 -20 -49 -40 -99 -45 -110 -34 -74 -52 -226 -35 -305 31 -151 103 -275
202 -346 112 -82 305 -108 443 -62 19 7 37 13 40 13 35 8 171 97 201 132 82
95 1350 1335 1619 1583 19 18 93 87 164 154 71 66 138 129 149 139 12 10 51
45 87 79 116 109 153 143 265 243 61 54 112 102 113 107 2 4 7 8 12 8 5 0 21
12 37 28 28 27 133 120 208 183 22 19 49 43 61 54 12 11 41 36 65 55 23 19 52
44 63 55 12 11 46 40 76 65 30 25 57 47 60 50 5 5 91 76 133 110 11 8 24 20
31 25 23 21 151 121 163 128 9 6 10 -9 6 -60 -12 -137 -6 -430 11 -518 2 -11
7 -42 10 -68 41 -300 204 -606 415 -777 23 -19 52 -43 63 -52 12 -10 27 -18
35 -18 7 0 13 -4 13 -8 0 -5 47 -32 104 -60 100 -50 218 -92 301 -108 22 -4
45 -8 50 -10 6 -1 52 -9 104 -17 89 -13 385 -16 466 -4 85 12 119 19 225 42
41 9 82 18 90 20 8 2 42 10 75 19 33 10 67 19 75 21 8 2 15 4 15 5 0 1 8 3 17
5 19 3 85 23 108 32 8 4 17 7 20 8 34 8 351 124 395 144 11 5 112 48 225 96
182 78 310 139 406 195 17 10 61 34 98 54 37 20 174 98 304 173 261 151 336
193 492 275 111 59 272 141 280 143 3 1 55 25 115 54 175 84 335 145 490 186
50 13 70 17 155 30 25 4 54 8 65 10 70 11 155 82 182 153 15 40 17 83 17 342
0 253 -2 302 -17 346 -21 61 -74 115 -142 144 -44 19 -62 21 -140 16 -91 -6
-115 -9 -195 -27 -25 -6 -53 -12 -62 -14 -71 -15 -331 -96 -403 -125 -16 -7
-46 -19 -65 -27 -54 -22 -72 -30 -120 -51 -25 -11 -90 -39 -145 -63 -98 -42
-627 -306 -695 -347 -70 -41 -166 -94 -192 -105 -16 -6 -28 -15 -28 -19 0 -4
-4 -8 -9 -8 -4 0 -69 -34 -142 -76 -74 -42 -143 -80 -154 -85 -11 -5 -33 -17
-50 -27 -16 -10 -61 -36 -100 -57 -38 -21 -92 -50 -120 -65 -27 -15 -99 -48
-160 -74 -60 -26 -119 -51 -130 -56 -11 -5 -49 -21 -85 -35 -36 -14 -74 -30
-85 -34 -168 -72 -508 -178 -626 -196 -175 -27 -254 -27 -334 0 -107 37 -162
98 -196 220 -16 56 -20 364 -6 475 4 35 12 98 18 140 23 181 -1 570 -47 755
-9 38 -61 153 -77 171 -7 7 -25 31 -42 52 -58 75 -161 140 -275 173 -28 9 -98
13 -190 13 -183 -1 -261 -22 -475 -129 -123 -62 -316 -176 -360 -212 -5 -5
-31 -23 -57 -40 -63 -43 -112 -77 -118 -83 -3 -3 -43 -34 -90 -70 -71 -53
-424 -342 -440 -360 -3 -3 -50 -43 -105 -90 -55 -47 -107 -91 -115 -100 -8 -8
-67 -61 -130 -117 -63 -55 -129 -114 -147 -130 -99 -89 -228 -207 -298 -273
-44 -41 -85 -79 -91 -85 -142 -131 -237 -219 -273 -254 -29 -29 -42 -38 -39
-25 3 10 63 161 133 334 70 173 161 398 202 500 164 408 225 556 239 587 8 17
14 34 14 38 0 4 6 21 14 38 8 18 31 73 51 122 19 50 40 99 45 110 4 11 17 52
29 90 72 253 58 506 -40 735 -154 358 -401 646 -679 792 -75 39 -154 69 -260
97 -72 19 -90 22 -190 36 -49 6 -257 15 -262 10z"/>
</g>
</svg>
