<?xml version="1.0" encoding="UTF-8" standalone="no"?><!DOCTYPE svg PUBLIC "-//W3C//DTD SVG 1.1//EN" "http://www.w3.org/Graphics/SVG/1.1/DTD/svg11.dtd"><svg width="100%" height="100%" viewBox="0 0 119 116" version="1.1" xmlns="http://www.w3.org/2000/svg" xmlns:xlink="http://www.w3.org/1999/xlink" xml:space="preserve" xmlns:serif="http://www.serif.com/" style="fill-rule:evenodd;clip-rule:evenodd;stroke-linejoin:round;stroke-miterlimit:2;"><path d="M12.844,30.81c0,-0 -15,54.458 -12.567,60.539c2.432,6.081 14.594,7.297 19.999,8.513c5.406,1.216 54.458,14.054 59.458,14.324c5,0.27 4.595,0.946 6.757,0.946c2.162,0 29.458,-9.189 30.404,-12.432c0.946,-3.243 1.757,-5.405 0.946,-9.459c-0.811,-4.054 -13.243,-55.945 -16.621,-57.026c-3.378,-1.081 -88.376,-5.405 -88.376,-5.405Z" style="fill:url(#_Linear1);fill-rule:nonzero;"/><path d="M10.277,40.539c-0,0 1.081,-8.513 2.567,-9.729c1.486,-1.216 5.676,-6.757 9.73,-7.027c4.053,-0.27 69.322,7.973 71.754,8.513c2.433,0.541 5.676,1.757 6.757,3.784c1.081,2.027 -9.459,4.459 -11.486,10.946c-2.027,6.486 -39.324,20.134 -48.512,21.08c-9.189,0.946 -30.81,-27.567 -30.81,-27.567Z" style="fill:url(#_Linear2);fill-rule:nonzero;"/><path d="M31.627,25.945c0,0 7.027,-15.27 10.405,-18.107c2.973,-2.568 13.649,-8.108 20.135,0.135c7.297,9.324 6.621,20.134 6.621,21.486c0,1.351 -7.162,0.135 -7.162,0.135c0,-0 2.298,-11.081 0.271,-14.865c-1.892,-3.513 -2.973,-7.702 -9.73,-7.297c-6.756,0.406 -9.189,4.189 -11.216,7.703c-1.756,3.513 -3.108,7.162 -4.324,10.945c-0.27,0.406 -5,-0.135 -5,-0.135Z" style="fill:#4b45bd;fill-rule:nonzero;"/><path d="M42.843,26.891c0,0 7.027,-18.648 10.405,-22.161c2.973,-3.108 14.324,-9.324 20.811,0.675c7.297,11.351 5.81,24.054 5.81,25.54c0,1.487 -7.162,0.27 -7.162,0.27c0,0 2.162,-13.513 0.135,-18.242c-1.891,-4.325 -2.972,-9.46 -9.594,-8.919c-6.621,0.54 -9.189,5 -11.216,9.459c-1.757,4.324 -3.108,8.784 -4.324,13.378c-0,0.676 -4.865,0 -4.865,0Z" style="fill:#4b45bd;fill-rule:nonzero;"/><path d="M86.761,50.809c-0,0 -6.216,52.296 -5.405,55.81c0.81,3.513 2.837,8.513 4.324,8.513c1.486,0 3.919,-0.27 2.973,-1.486c-3.108,-4.46 -4.46,-10 -3.649,-15.27c0.946,-8.514 4.595,-51.35 4.595,-51.35l-2.838,3.783Z" style="fill:#4b45bd;fill-rule:nonzero;"/><circle cx="39.465" cy="68.106" r="3.784" style="fill:#fff;"/><defs><linearGradient id="_Linear1" x1="0" y1="0" x2="1" y2="0" gradientUnits="userSpaceOnUse" gradientTransform="matrix(115.037,53.2823,-53.2823,115.037,-21.5688,31.3509)"><stop offset="0" style="stop-color:#4b45bd;stop-opacity:1"/><stop offset="1" style="stop-color:#58caea;stop-opacity:1"/></linearGradient><linearGradient id="_Linear2" x1="0" y1="0" x2="1" y2="0" gradientUnits="userSpaceOnUse" gradientTransform="matrix(76.4574,35.4178,-35.4178,76.4574,-3.79902,17.288)"><stop offset="0" style="stop-color:#4b45bd;stop-opacity:1"/><stop offset="1" style="stop-color:#58caea;stop-opacity:1"/></linearGradient></defs></svg>