<?xml version="1.0" encoding="UTF-8" standalone="no"?><!DOCTYPE svg PUBLIC "-//W3C//DTD SVG 1.1//EN" "http://www.w3.org/Graphics/SVG/1.1/DTD/svg11.dtd"><svg width="100%" height="100%" viewBox="0 0 287 185" version="1.1" xmlns="http://www.w3.org/2000/svg" xmlns:xlink="http://www.w3.org/1999/xlink" xml:space="preserve" xmlns:serif="http://www.serif.com/" style="fill-rule:evenodd;clip-rule:evenodd;stroke-linejoin:round;stroke-miterlimit:2;"><path d="M3.656,56.089c0,0 -59.949,-85.76 7.137,-107.621c67.085,-21.86 90.636,67.263 136.311,69.785c45.675,2.523 99.201,-33.631 113.474,-33.631c14.273,0 39.966,1.682 38.538,31.109c-1.427,29.427 -19.983,56.332 -20.696,70.626c-0.714,14.293 16.414,52.969 19.269,62.218c2.855,9.248 6.423,35.313 -9.278,36.994c-8.036,0.841 -53.882,11.351 -115.972,-10.089c-46.984,-16.223 -120.525,11.771 -137.671,11.771c-5.552,0.016 -10.972,-2.007 -15.504,-5.785c-12.596,-10.556 -32.64,-37.07 -14.895,-91.746c9.278,-28.587 -0.713,-33.631 -0.713,-33.631Z" style="fill:#f5f5ff;fill-rule:nonzero;"/></svg>