<?xml version="1.0" encoding="UTF-8" standalone="no"?><!DOCTYPE svg PUBLIC "-//W3C//DTD SVG 1.1//EN" "http://www.w3.org/Graphics/SVG/1.1/DTD/svg11.dtd"><svg width="100%" height="100%" viewBox="0 0 215 120" version="1.1" xmlns="http://www.w3.org/2000/svg" xmlns:xlink="http://www.w3.org/1999/xlink" xml:space="preserve" xmlns:serif="http://www.serif.com/" style="fill-rule:evenodd;clip-rule:evenodd;stroke-linejoin:round;stroke-miterlimit:2;"><g id="bg"><path d="M-8.834,34.895c-2.752,-16.078 3.04,-34.173 15.156,-40.365c9.54,-4.878 24.137,-6.495 43.68,-0.56c51.705,15.696 47.247,-2.243 67.305,-16.259c17.655,-12.333 39.223,-27.471 76.665,1.121c28.392,21.682 11.588,55.502 30.754,76.246c12.326,13.34 -8.469,77.927 -68.196,63.912c-59.727,-14.016 -73.256,5.649 -100.288,12.895c-27.188,7.287 -83.332,-36.072 -68.196,-56.064c8.915,-11.772 4.852,-30.818 3.12,-40.926Z" style="fill:#98aaec;fill-rule:nonzero;"/><path d="M10.546,38.82c-2.32,-13.822 2.563,-29.375 12.777,-34.698c8.044,-4.205 20.35,-5.581 36.828,-0.482c43.59,13.495 39.833,-1.928 56.743,-13.977c14.884,-10.604 33.068,-23.614 64.634,0.965c23.937,18.638 9.771,47.707 25.929,65.537c10.392,11.468 -7.139,66.996 -57.489,54.943c-50.349,-12.054 -61.762,4.855 -84.551,11.083c-22.929,6.262 -70.265,-31.009 -57.5,-48.192c7.515,-10.121 4.088,-26.489 2.629,-35.179Z" style="fill:#a1b1ed;fill-rule:nonzero;"/><path d="M23.993,39.689c-2.027,-11.835 2.228,-25.153 11.153,-29.713c7.023,-3.592 17.767,-4.781 32.153,-0.413c38.056,11.555 34.766,-1.651 49.539,-11.966c12.996,-9.08 28.87,-20.219 56.429,0.823c20.898,15.959 8.529,40.853 22.636,56.12c9.073,9.811 -6.24,57.358 -50.195,47.043c-43.955,-10.317 -53.92,4.156 -73.817,9.491c-20.012,5.368 -61.335,-26.549 -50.193,-41.263c6.56,-8.665 3.566,-22.683 2.295,-30.122Z" style="fill:#a9b8ef;fill-rule:nonzero;"/></g></svg>