<?xml version="1.0" encoding="UTF-8" standalone="no"?><!DOCTYPE svg PUBLIC "-//W3C//DTD SVG 1.1//EN" "http://www.w3.org/Graphics/SVG/1.1/DTD/svg11.dtd"><svg width="100%" height="100%" viewBox="0 0 200 120" version="1.1" xmlns="http://www.w3.org/2000/svg" xmlns:xlink="http://www.w3.org/1999/xlink" xml:space="preserve" xmlns:serif="http://www.serif.com/" style="fill-rule:evenodd;clip-rule:evenodd;stroke-linejoin:round;stroke-miterlimit:2;"><path d="M7.422,97.136l185.311,0c0,0 6.922,-0.227 6.922,-5.259l0,-9.918l-199.533,0l0,12.097c0.993,1.913 3.945,3.182 7.166,3.08" style="fill:#bac5f4;fill-rule:nonzero;"/><path d="M0.122,6.831l-0.122,78.922l199.655,-1.138l0,-80.06c0,0 1.217,-4.554 -6.557,-4.554l-185.445,0c0,0 -8.383,0 -7.531,6.898" style="fill:#bac5f4;fill-rule:nonzero;"/><path d="M84.072,118.309l0,-21.931l29.2,0.758l0,19.276l-29.2,1.897Z" style="fill:#bac5f4;fill-rule:nonzero;"/><path d="M37.716,116.108l121.339,0.023l0.073,3.771l-121.412,0l0,-3.794Z" style="fill:#bac5f4;fill-rule:nonzero;"/><path d="M98.1,87.347c2.106,-0 3.84,1.644 3.84,3.643c-0,1.998 -1.734,3.643 -3.84,3.643c-2.106,-0 -3.84,-1.645 -3.84,-3.643c-0,-1.999 1.734,-3.643 3.84,-3.643" style="fill:#fff;fill-rule:nonzero;"/><rect x="6.205" y="3.795" width="187.367" height="76.646" style="fill:#474747;"/><path d="M15.61,7.742c1.053,0 1.919,0.821 1.919,1.821c0,0.999 -0.866,1.821 -1.919,1.821c-1.054,0 -1.92,-0.822 -1.92,-1.821c0,-1 0.866,-1.821 1.92,-1.821" style="fill:#fa5f5d;fill-rule:nonzero;"/><path d="M25.587,7.742c1.053,0 1.92,0.821 1.92,1.821c0,0.999 -0.867,1.821 -1.92,1.821c-1.054,0 -1.921,-0.822 -1.921,-1.821c0,-1 0.867,-1.821 1.921,-1.821" style="fill:#fdbc4e;fill-rule:nonzero;"/><path d="M35.05,7.742c1.053,0 1.92,0.821 1.92,1.821c-0,0.999 -0.867,1.821 -1.92,1.821c-1.054,0 -1.921,-0.822 -1.921,-1.821c-0,-1 0.867,-1.821 1.921,-1.821" style="fill:#37cd58;fill-rule:nonzero;"/><path d="M76.772,21.06c-0.092,0.986 -1.459,1.754 -3.042,1.707l-35.892,0c-1.849,0 -3.65,-0.759 -3.65,-1.707l0,-3.408c0,-0.948 1.764,-1.714 3.65,-1.714l35.82,0c1.585,-0.084 3.003,0.657 3.151,1.646c0.146,0.989 0,0.046 0,0.068l-0.037,3.408Z" style="fill:url(#_Linear1);fill-rule:nonzero;"/><path d="M118.138,63.367c-0.233,0.341 -0.711,0.595 -1.289,0.682c-0.073,-0 -0.146,-0 -0.22,-0.303l-36.791,-0c-0.754,0.303 -1.874,0.038 -1.85,-0.379l0,-0.296c0,-0.417 1.096,-0.759 1.85,-0.843l36.791,-0c0.579,0.068 1.031,0.353 1.132,0.714c0,0.045 0,0.083 0.377,0.129l0,0.296Z" style="fill:#e9edfb;fill-rule:nonzero;"/><path d="M118.138,66.357c-0.218,0.374 -0.72,0.658 -1.338,0.759c-0.618,0.1 -0.11,0 -0.171,-0.327l-36.791,0c-0.754,0.334 -1.874,0 -1.85,-0.425l0,-0.341c0,-0.41 1.096,-0.645 1.85,-0.759l36.791,0c0.65,0.112 1.197,0.387 1.509,0.759l0,0.334Z" style="fill:#e9edfb;fill-rule:nonzero;"/><path d="M118.138,69.355c-0.235,0.417 -0.803,0.728 -1.496,0.819c-0.019,-0.118 -0.019,-0.238 0,-0.357l-36.792,0c-0.198,0.081 -0.428,0.123 -0.664,0.123c-0.564,0 -1.057,-0.244 -1.185,-0.585l0,-0.297c0,-0.409 1.095,-0.577 1.849,-0.758l36.792,0c0.649,0.111 1.196,0.386 1.509,0.758l-0.013,0.297Z" style="fill:#e9edfb;fill-rule:nonzero;"/><path d="M118.138,72.344c-0.356,0.483 -0.871,0.915 -1.509,1.268l-36.791,-0c-0.754,-0.38 -1.874,-0.851 -1.85,-1.268l0,-0.296c0,-0.417 1.096,-0.857 1.85,-0.713l36.791,-0c0.072,-0.011 0.146,-0.016 0.219,-0.016c0.514,-0 0.937,0.263 0.937,0.584c0,0.031 -0.003,0.062 -0.011,0.092c-0.009,0.031 0,-0 0.364,0.053l0,0.296Z" style="fill:#e9edfb;fill-rule:nonzero;"/><path d="M97.723,75.334c0,0.372 -0.401,0.554 -1.095,0.554l-16.937,0c-0.68,0 -1.69,-0.182 -1.69,-0.554l0,-0.273c0,-0.372 1.01,-0.683 1.69,-0.683l16.949,0c0.6,0 1.095,0.308 1.095,0.683l-0.012,0.273Z" style="fill:#e9edfb;fill-rule:nonzero;"/><path d="M163.155,63.367c-0.693,0.417 -0.571,0.682 -1.326,0.379l-36.804,-0c-0.621,0.334 -1.216,0.053 -1.216,-0.334l0.413,-0.045l0,-0.296c-0.377,-0.403 0.158,-0.759 0.803,-0.843l36.804,0c0.755,0.122 0.633,0.426 1.326,0.843l0,0.296Z" style="fill:#e9edfb;fill-rule:nonzero;"/><path d="M163.155,66.357c-0.693,0.417 -0.571,0.759 -1.326,0.425l-36.804,0c-0.67,0.334 -1.216,0 -0.803,-0.425l0,-0.334c-0.413,-0.41 0.098,-0.645 0.803,-0.759l36.804,0c0.755,0.152 0.633,0.387 1.326,0.759l0,0.334Z" style="fill:#e9edfb;fill-rule:nonzero;"/><path d="M163.155,69.355c-0.693,0.409 -0.571,0.819 -1.326,0.462l-36.804,0c-0.693,0.327 -1.216,0 -0.803,-0.462l0,-0.297c-0.413,-0.409 0.098,-0.577 0.803,-0.758l36.804,0c0.755,0.174 0.633,0.341 1.326,0.758l0,0.297Z" style="fill:#e9edfb;fill-rule:nonzero;"/><path d="M163.155,72.344c-0.693,0.417 -0.571,0.888 -1.326,1.268l-36.804,-0c-0.718,-0.433 -1.216,-0.82 -0.803,-1.268l0,-0.296c-0.118,-0.082 -0.182,-0.188 -0.182,-0.297c0,-0.246 0.324,-0.448 0.718,-0.448c0.091,-0 0.182,0.011 0.267,0.032l36.804,-0c0.755,-0.144 0.633,0.296 1.326,0.713l0,0.296Z" style="fill:#e9edfb;fill-rule:nonzero;"/><path d="M142.922,75.334c0,0.372 0,0.554 -0.645,0.554l-16.961,0c-0.68,0 -1.094,-0.182 -1.094,-0.554l0,-0.273c0,-0.375 0.494,-0.683 1.094,-0.683l16.937,0c0.681,0 0.645,0.334 0.645,0.683l0.024,0.273Z" style="fill:#e9edfb;fill-rule:nonzero;"/><path d="M73.122,63.367c0.475,0.417 0.206,0.682 -0.548,0.379l-36.804,-0c-0.173,0.086 -0.388,0.132 -0.61,0.132c-0.478,-0 -0.892,-0.217 -0.972,-0.511l0,-0.296c0.248,-0.436 0.852,-0.758 1.582,-0.843l36.804,0c0.754,0.122 1.023,0.426 0.548,0.843l0,0.296Z" style="fill:#e9edfb;fill-rule:nonzero;"/><path d="M73.122,66.357c0.475,0.417 0.206,0.759 -0.548,0.425l-36.804,0c-0.73,0.356 -1.35,0 -1.582,-0.425l0,-0.334c0.159,-0.41 0.827,-0.645 1.582,-0.759l36.804,0c0.754,0.152 1.023,0.387 0.548,0.759l0,0.334Z" style="fill:#e9edfb;fill-rule:nonzero;"/><path d="M73.122,69.355c0.475,0.409 0.206,0.819 -0.548,0.462l-36.804,0c-0.742,0.349 -1.35,0 -1.582,-0.462l0,-0.297c0.159,-0.409 0.827,-0.577 1.582,-0.758l36.804,0c0.754,0.174 1.023,0.341 0.548,0.758l0,0.297Z" style="fill:#e9edfb;fill-rule:nonzero;"/><path d="M62.172,71.335l10.402,-0c0.754,-0.144 1.023,0.296 0.548,0.713l-0,0.296c0.475,0.417 0.206,0.888 -0.548,1.268l-36.804,-0c-0.713,-0.318 -1.262,-0.758 -1.582,-1.268l-0,-0.296c0.099,-0.415 0.676,-0.726 1.349,-0.726c0.078,-0 0.155,0.005 0.233,0.013l26.402,-0" style="fill:#e9edfb;fill-rule:nonzero;"/><path d="M54.872,75.334c0,0.372 -0.34,0.554 -1.083,0.554l-18.25,0c-0.73,0 -1.387,-0.182 -1.387,-0.554l0,-0.273c0.115,-0.413 0.716,-0.708 1.387,-0.683l18.287,0c0.564,0 1.033,0.285 1.046,0.638c0.013,0.352 0,0 0,0.052l0,0.266Z" style="fill:#e9edfb;fill-rule:nonzero;"/><defs><linearGradient id="_Linear1" x1="0" y1="0" x2="1" y2="0" gradientUnits="userSpaceOnUse" gradientTransform="matrix(42.5834,0,0,42.5834,34.1884,19.3523)"><stop offset="0" style="stop-color:#f71d69;stop-opacity:1"/><stop offset="1" style="stop-color:#f8c648;stop-opacity:1"/></linearGradient></defs></svg>