<?xml version="1.0" encoding="UTF-8" standalone="no"?><!DOCTYPE svg PUBLIC "-//W3C//DTD SVG 1.1//EN" "http://www.w3.org/Graphics/SVG/1.1/DTD/svg11.dtd"><svg width="100%" height="100%" viewBox="0 0 116 200" version="1.1" xmlns="http://www.w3.org/2000/svg" xmlns:xlink="http://www.w3.org/1999/xlink" xml:space="preserve" xmlns:serif="http://www.serif.com/" style="fill-rule:evenodd;clip-rule:evenodd;stroke-linejoin:round;stroke-miterlimit:2;"><g id="Cup"><path d="M27.285,103.693c-2.413,-0.649 -4.859,-1.164 -7.328,-1.544c-5.275,-1.194 -10.809,0.41 -14.627,4.239c-2.473,2.957 -4.077,6.543 -4.633,10.357c-2.396,11.685 1.559,23.806 10.387,31.828c6.169,6.116 13.005,11.52 20.38,16.11c2.13,1.189 3.563,3.332 3.846,5.754c2.236,8.375 5.059,16.582 8.449,24.56c0.369,0.783 1.089,1.346 1.938,1.514c14.837,4.161 30.518,4.297 45.425,0.394c3.452,-1.151 3.452,-1.151 5.027,-4.603c5.945,-16.009 10.208,-32.592 12.719,-49.483c2.367,-15.356 3.38,-30.891 3.028,-46.424c0,-2.665 0,-3.028 -3.028,-3.816c-4.637,-1.371 -9.43,-2.145 -14.263,-2.301c-12.551,-1.02 -25.151,-1.283 -37.733,-0.788c-8.021,0.15 -16.011,1.052 -23.863,2.696c-1.938,0.393 -3.453,1.15 -5.027,1.544c-0.757,0.363 -1.151,0.757 -1.151,1.514c0.357,2.802 0.509,5.626 0.454,8.449Zm4.997,53.662l-0.364,-0c-12.809,-6.723 -21.41,-16.595 -22.379,-31.919c-0.251,-3.225 0.098,-6.47 1.03,-9.569c0.835,-2.688 3.001,-4.763 5.723,-5.481c4.339,-0.677 8.632,1.618 10.478,5.602l0,4.24c0.545,9.379 1.677,18.714 3.392,27.951c0.363,2.695 1.181,5.724 1.968,9.085l0.152,0.091Z" style="fill:url(#_Linear1);fill-rule:nonzero;"/><path d="M27.982,93.73c-0,0 40.761,-12.446 83.945,0c-0,-0.091 -35.916,14.385 -83.945,0Z" style="fill:#93df93;fill-rule:nonzero;"/><path d="M96.3,0.034c2.827,15.085 -1.405,30.664 -11.477,42.245c-4.088,5.36 -8.207,10.054 -12.295,15.414c-6.35,8.234 -10.574,17.908 -12.295,28.163c0,1.333 -0.817,3.362 -0.817,4.694c-0,-2.695 -0.818,-4.694 -0.818,-7.389c-0.277,-12.18 3.793,-24.069 11.477,-33.523c3.309,-4.449 6.868,-8.705 10.66,-12.749c7.852,-9.483 13.214,-20.779 15.596,-32.858" style="fill:url(#_Linear2);fill-rule:nonzero;"/><path d="M42.972,74.47c-0.12,-1.369 -0.394,-2.72 -0.818,-4.028c-0.442,-10.096 3.093,-19.974 9.842,-27.497c3.7,-4.148 6.996,-8.64 9.842,-13.415c3.622,-5.738 6.129,-12.109 7.389,-18.776c0.152,-0.787 0.667,-4.391 0.667,-2.089l0.151,0.757c0.415,1.762 0.689,3.554 0.818,5.36c-0.082,9.065 -3.292,17.829 -9.085,24.802l-9.842,12.113c-3.494,4.914 -6.06,10.425 -7.571,16.262c-0.161,0.726 -0.242,1.467 -0.242,2.211c-0.007,1.522 -0.414,3.016 -1.181,4.33l0.03,-0.03Z" style="fill:url(#_Linear3);fill-rule:nonzero;"/><path d="M87.549,80.466c-0,-0.303 -0.667,-2.877 -0.879,-5.148c-0.442,-10.097 3.093,-19.975 9.842,-27.497c3.701,-4.149 6.996,-8.641 9.842,-13.416c3.622,-5.738 6.129,-12.108 7.39,-18.775c0.181,-0.697 1.029,-4.179 0.757,-1.726l-0,0.666c0.375,1.678 0.648,3.377 0.817,5.087c-0.081,9.065 -3.292,17.829 -9.085,24.802l-9.842,12.114c-3.493,4.913 -6.059,10.425 -7.57,16.262c-0.162,0.725 -0.243,1.467 -0.243,2.21c-0.054,1.546 -0.329,3.075 -0.817,4.543l-0.212,0.878Z" style="fill:url(#_Linear4);fill-rule:nonzero;"/></g><defs><linearGradient id="_Linear1" x1="0" y1="0" x2="1" y2="0" gradientUnits="userSpaceOnUse" gradientTransform="matrix(-182.426,63.3827,-63.3827,-182.426,129.945,120.864)"><stop offset="0" style="stop-color:#93df93;stop-opacity:1"/><stop offset="1" style="stop-color:#21c2c1;stop-opacity:1"/></linearGradient><linearGradient id="_Linear2" x1="0" y1="0" x2="1" y2="0" gradientUnits="userSpaceOnUse" gradientTransform="matrix(-209.075,1083.48,-1083.48,-209.075,38603.8,431628)"><stop offset="0" style="stop-color:#93df93;stop-opacity:1"/><stop offset="1" style="stop-color:#21c2c1;stop-opacity:1"/></linearGradient><linearGradient id="_Linear3" x1="0" y1="0" x2="1" y2="0" gradientUnits="userSpaceOnUse" gradientTransform="matrix(-96.5849,608.66,-608.66,-96.5849,28581.1,317398)"><stop offset="0" style="stop-color:#93df93;stop-opacity:1"/><stop offset="1" style="stop-color:#21c2c1;stop-opacity:1"/></linearGradient><linearGradient id="_Linear4" x1="0" y1="0" x2="1" y2="0" gradientUnits="userSpaceOnUse" gradientTransform="matrix(-97.5288,624.362,-624.362,-97.5288,28986.3,321494)"><stop offset="0" style="stop-color:#93df93;stop-opacity:1"/><stop offset="1" style="stop-color:#21c2c1;stop-opacity:1"/></linearGradient></defs></svg>