<?xml version="1.0" encoding="UTF-8" standalone="no"?><!DOCTYPE svg PUBLIC "-//W3C//DTD SVG 1.1//EN" "http://www.w3.org/Graphics/SVG/1.1/DTD/svg11.dtd"><svg width="100%" height="100%" viewBox="0 0 127 175" version="1.1" xmlns="http://www.w3.org/2000/svg" xmlns:xlink="http://www.w3.org/1999/xlink" xml:space="preserve" xmlns:serif="http://www.serif.com/" style="fill-rule:evenodd;clip-rule:evenodd;stroke-linejoin:round;stroke-miterlimit:2;"><g id="woman"><g><path d="M91.196,163.496c-2.37,-3.936 -4.258,-4.981 -10.123,-5.142c-5.865,-0.16 -13.659,-0.08 -13.659,-0.08l-0.08,8.316c0,-0 6.468,3.735 9.922,5.583c0.201,0.121 0.764,0.442 1.165,0.683c0.603,0.281 1.246,0.522 1.888,0.683c3.415,0.723 6.508,0.362 8.717,-1.848c2.451,-2.45 4.54,-4.258 2.17,-8.195Z" style="fill:#4b49bb;fill-rule:nonzero;"/><path d="M46.967,156.105c-0.201,0.161 -0.723,0.562 -1.084,0.843c-0.482,0.442 -0.924,0.965 -1.326,1.487c-1.928,2.892 -2.772,5.905 -1.526,8.797c1.365,3.174 2.289,5.825 6.788,5.062c4.5,-0.763 6.227,-2.129 8.557,-7.472c2.33,-5.343 5.182,-12.654 5.142,-12.654l-7.673,-3.173c0,-0 -5.865,4.619 -8.878,7.11Z" style="fill:#4b49bb;fill-rule:nonzero;"/></g><path d="M67.937,158.636c-0,-0 0.12,8.395 -1.246,8.596c-1.365,0.201 -20.206,-2.531 -27.718,-2.932c-7.512,-0.402 -24.544,-5.263 -32.9,-14.703c-7.231,-8.155 -6.106,-17.193 -0.763,-17.193c5.343,-0 10.244,-4.539 23.821,1.928c13.578,6.468 27.959,7.552 36.034,6.91c8.074,-0.643 30.691,-4.821 32.458,-6.106c1.768,-1.286 10.244,-4.982 22.054,-3.696c11.81,1.285 6.227,10.645 3.736,14.261c-3.495,5.021 -11.77,10.404 -18.68,10.645c-6.909,0.241 -36.796,2.29 -36.796,2.29Z" style="fill:url(#_Linear1);fill-rule:nonzero;"/><path d="M53.957,11.81c-3.977,1.446 -9.038,21.13 -9.038,21.13l-0.081,-0.08l-0.562,2.732l-0.683,3.575l1.326,21.371l12.854,6.427l29.526,7.954l8.155,11.61c-0,-0 18.278,18.599 18.398,19.884c0.121,1.286 -19.643,7.834 -21.532,8.115c-4.539,0.683 29.044,-7.552 18.278,-20.608c-4.579,-5.584 -11.288,-22.375 -24.584,-33.503c-7.713,-6.427 -5.544,-24.705 -8.276,-36.274c-3.414,-14.462 -5.503,-18.8 -8.918,-18.8c-3.093,-0 -7.391,3.695 -14.863,6.467" style="fill:url(#_Linear2);fill-rule:nonzero;"/><path d="M95.735,58.529c-6.186,-5.664 -8.275,-7.03 -13.698,-5.101c-5.423,1.928 -8.075,3.695 -15.466,4.9c-4.54,0.804 -9.24,0.201 -13.457,-1.647l-15.225,1.527c-1.929,-0.241 -23.581,40.412 -24.103,48.848c-0.321,5.182 11.449,13.176 14.743,13.979c1.325,0.322 3.696,-12.453 4.459,-13.618l-4.941,-1.526c0.884,-2.209 3.856,-7.673 5.825,-10.605c0.602,-0.924 5.302,-8.677 5.945,-11.65c0.12,0.281 0.803,5.905 1.446,7.713c1.205,3.334 2.852,5.222 2.852,7.874c0,2.651 -0.321,13.176 -2.249,17.916c-1.929,4.74 -4.741,15.707 -4.741,15.707l48.688,-0.281c-0,-0 -1.768,-20.93 -1.045,-28.12c0,-0 -0.763,-2.892 0.683,-7.07c2.37,-6.91 3.053,-17.194 2.652,-18.8c-0.603,-2.531 14.3,18.88 17.554,24.303c1.366,2.25 -17.153,6.227 -18.679,7.954c-1.607,1.808 1.566,6.709 1.566,6.709c0,-0 32.298,-3.937 32.137,-8.878c-0.16,-4.941 -17.755,-43.586 -24.946,-50.134Z" style="fill:url(#_Linear3);fill-rule:nonzero;"/><path d="M57.854,0.241c-0,0 -9.039,0.362 -11.65,9.842c-2.611,9.48 -2.973,22.697 -3.053,24.745c-0.08,2.17 0.924,14.864 -3.937,20.166c-4.177,4.58 -2.49,8.999 -3.535,12.654l-0.482,6.066c0.081,0.723 0.603,1.326 1.286,1.567c0.642,0.2 2.892,-0.844 3.294,-1.005c5.624,-2.249 5.624,-4.057 7.753,-5.865c1.767,-1.486 6.628,-4.941 8.074,-6.306c1.446,-1.366 2.451,-2.571 2.531,-4.299c0.281,-8.797 -1.245,-16.912 -3.174,-21.21c-1.928,-4.298 -5.624,-11.569 -2.53,-16.39c3.093,-4.82 8.677,-9.641 8.998,-10.846c0.321,-1.205 0.482,4.66 3.897,6.708c3.414,2.049 6.266,4.901 7.311,7.673c0.883,2.33 2.048,6.307 -1.165,13.176c-3.214,6.869 -5.825,15.707 -1.286,22.255c4.54,6.548 14.1,13.618 15.667,16.912c1.767,3.656 0.08,12.252 -0.241,17.434c-0.321,5.182 10.123,-8.998 9.802,-15.747c-0.322,-6.749 0.803,-9.641 -5.664,-20.005c-6.468,-10.364 -10.686,-28.12 -10.847,-32.418c-0.16,-4.298 -2.089,-16.229 -5.985,-19.644c-3.375,-2.892 -4.098,-5.704 -11.007,-5.704c-1.366,-0 -2.732,0.08 -4.057,0.241" style="fill:url(#_Linear4);fill-rule:nonzero;"/><path d="M37.246,143.893l45.634,0.241c0,-0 -5.342,4.178 -7.913,4.66c-2.571,0.482 -13.578,5.945 -17.676,3.856c-2.892,-1.567 -20.045,-8.757 -20.045,-8.757Z" style="fill-opacity:0.07;fill-rule:nonzero;"/><path d="M62.674,41.416c0,0 4.258,1.085 6.026,-1.406c3.977,-5.624 0.361,2.853 0.361,2.853c0,-0 -1.165,3.294 -1.084,4.941c0.08,1.647 -4.58,-6.147 -5.303,-6.388" style="fill-opacity:0.07;fill-rule:nonzero;"/><path d="M45.642,70.34c-0.523,0.642 -1.286,1.165 -1.688,2.812c-0.682,2.651 -1.405,5.624 -3.253,8.355c-1.085,1.607 -0.482,7.834 1.325,11.77c0.523,1.125 2.129,4.058 2.089,4.74l-0.12,5.705l4.901,-0c-0,-0 4.177,0.442 3.294,-3.013c-0.764,-3.053 -4.741,-14.421 -2.049,-16.912c5.061,-4.62 -1.326,-13.859 1.044,-16.832c2.049,-2.571 4.982,-4.419 4.982,-5.262c-0,-0.322 -0.764,0.723 -1.286,1.084c-1.004,0.723 -1.526,1.286 -2.37,1.848c-0.924,0.603 -2.33,1.607 -3.254,2.29c-1.326,1.004 -2.531,2.129 -3.615,3.415Z" style="fill-opacity:0.07;fill-rule:nonzero;"/></g><g id="laptop"><path d="M26.56,106.935c0,0 -0.04,-2.972 2.893,-3.093c2.932,-0.12 65.037,-0.04 65.037,-0.04c-0,0 2.731,0.321 2.812,2.531c0.08,2.209 0.08,35.029 0.08,35.029c0,0 0.04,2.531 -2.651,2.611c-2.692,0.081 -66.001,0.081 -66.001,0.081c-0,-0 -2.37,-0.603 -2.33,-2.973c0.04,-2.37 0.16,-34.146 0.16,-34.146Z" style="fill:#fff;fill-rule:nonzero;"/><circle cx="62.152" cy="123.928" r="2.691" style="fill:#77c7e8;"/></g><defs><linearGradient id="_Linear1" x1="0" y1="0" x2="1" y2="0" gradientUnits="userSpaceOnUse" gradientTransform="matrix(-125.954,1.54249e-14,-1.54249e-14,-125.954,126.93,149.049)"><stop offset="0" style="stop-color:#4b45bd;stop-opacity:1"/><stop offset="1" style="stop-color:#58caea;stop-opacity:1"/></linearGradient><linearGradient id="_Linear2" x1="0" y1="0" x2="1" y2="0" gradientUnits="userSpaceOnUse" gradientTransform="matrix(70.2598,0,0,70.2598,43.593,59.955)"><stop offset="0" style="stop-color:#f87b58;stop-opacity:1"/><stop offset="0.5" style="stop-color:#f8c548;stop-opacity:1"/><stop offset="1" style="stop-color:#f89c51;stop-opacity:1"/></linearGradient><linearGradient id="_Linear3" x1="0" y1="0" x2="1" y2="0" gradientUnits="userSpaceOnUse" gradientTransform="matrix(106.902,0,0,106.902,13.7795,92.7252)"><stop offset="0" style="stop-color:#e5a4ed;stop-opacity:1"/><stop offset="1" style="stop-color:#7a5bf5;stop-opacity:1"/></linearGradient><linearGradient id="_Linear4" x1="0" y1="0" x2="1" y2="0" gradientUnits="userSpaceOnUse" gradientTransform="matrix(60.2237,0,0,60.2237,35.1972,47.3168)"><stop offset="0" style="stop-color:#f8c547;stop-opacity:1"/><stop offset="1" style="stop-color:#f71d69;stop-opacity:1"/></linearGradient></defs></svg>