<?xml version="1.0" encoding="UTF-8" standalone="no"?><!DOCTYPE svg PUBLIC "-//W3C//DTD SVG 1.1//EN" "http://www.w3.org/Graphics/SVG/1.1/DTD/svg11.dtd"><svg width="100%" height="100%" viewBox="0 0 123 313" version="1.1" xmlns="http://www.w3.org/2000/svg" xmlns:xlink="http://www.w3.org/1999/xlink" xml:space="preserve" xmlns:serif="http://www.serif.com/" style="fill-rule:evenodd;clip-rule:evenodd;stroke-linejoin:round;stroke-miterlimit:2;"><g><path d="M120.553,309.015c-1.751,-1.125 -3.815,-2.563 -8.942,-3.564c-4.189,-0.75 -6.69,-7.315 -6.69,-7.315l-9.754,-0c-0,-0 -0.876,10.879 -0.438,11.755c0.438,0.875 0.688,1.813 2.939,2.501c2.251,0.688 22.009,0.438 22.885,0.25c0.875,-0.188 3.314,-1.501 -0,-3.627Z" style="fill:#4b49bb;fill-rule:nonzero;"/><path d="M7.128,204.407c-1.313,1.939 -7.065,20.822 -7.128,21.76c-0.063,0.938 0.438,3.626 3.439,1.125c1.626,-1.375 3.627,-2.876 6.065,-7.503c2.001,-3.752 9.004,-4.189 9.004,-4.189l3.001,-9.254c0,-0 -10.129,-4.127 -11.129,-4.002c-1.001,0.125 -1.939,0.125 -3.252,2.063Z" style="fill:#4b49bb;fill-rule:nonzero;"/></g><path d="M71.344,170.142c-0.25,0.063 -0.563,1.876 -0.626,2.126c-1.438,4.627 -15.006,45.895 -15.006,47.646c-0,1.751 -29.075,-11.38 -33.765,-13.443c-0.375,-0.188 -0.75,-0 -0.938,0.312c-0.938,2.001 -3.626,7.941 -2.688,8.629c1.188,0.813 31.763,22.635 34.264,23.26c2.502,0.625 6.253,3.752 12.506,-3.751c5.377,-6.441 20.384,-30.826 24.573,-37.642c0.188,-0.313 0.625,-0.438 0.938,-0.25c0.188,0.125 0.313,0.313 0.375,0.563c0.751,6.565 1.063,32.014 3.252,38.829c2.188,6.816 -0.938,14.131 -0.938,24.136l1.813,36.828c0,0.375 0.313,0.688 0.688,0.688l8.441,0.188c0.375,-0 0.688,-0.25 0.75,-0.626c0.563,-5.94 6.128,-50.459 6.691,-57.4c0.625,-7.503 4.252,-70.468 3.251,-74.282c-0.75,-2.376 -38.954,3.439 -43.581,4.189Z" style="fill:url(#_Linear1);fill-rule:nonzero;"/><path d="M74.47,59.281c0,0 2.126,-8.503 3.814,-8.503c1.688,-0 11.943,1.25 13.193,7.253c1.251,6.002 5.941,9.379 5.941,16.632c-0,7.253 3.001,10.63 3.001,10.63c-0,-0 3.376,-10.692 5.877,-15.32c2.502,-4.627 6.941,-7.565 6.941,-10.692c-0,-3.126 -3.752,-38.642 -4.064,-39.579c-0.313,-0.938 -1.251,-6.566 0.938,-9.755c-0,0 6.753,-5.565 7.628,-7.816c0.688,-1.875 2.876,-2.938 4.127,-0.75c1.25,2.188 -3.939,8.129 -4.815,10.505c-0.75,2.251 -1.313,4.564 -1.563,6.94c-0,0.625 -1.251,10.067 -1.251,14.757c0,4.689 2.814,19.508 2.814,24.198c0,4.689 -10.379,23.51 -11.317,27.011c-0.938,3.502 -31.139,36.454 -31.764,37.392c-0.625,0.938 -3.752,8.191 -3.752,10.692c0,2.501 0,10.692 1.251,9.129c1.25,-1.563 6.44,-14.069 7.378,-15.632c0.938,-1.563 8.379,-3.064 11.88,-4.002c3.502,-0.938 8.629,0.938 8.004,3.127c-0.626,2.188 -10.818,6.315 -14.069,7.128c-2.063,0.5 -11.005,10.379 -11.63,13.193c-0.625,2.814 -8.816,-1.25 -8.816,-5.315c-0,-4.064 0.937,-24.823 2.188,-27.637c1.251,-2.814 6.941,-15.069 10.067,-21.384c3.126,-6.315 -3.752,-9.442 -5.002,-13.819c-1.251,-4.377 3.001,-18.383 3.001,-18.383Z" style="fill:url(#_Linear2);fill-rule:nonzero;"/><path d="M101.482,79.353c-0,-0 8.191,-14.694 9.004,-18.383c0.813,-3.69 -1.251,-41.394 -1.251,-41.394l6.315,-0.937c0,-0 6.066,34.952 6.878,39.017c0.813,4.064 -2.125,12.818 -4.939,17.757c-2.814,4.94 -10.567,25.637 -10.567,28.075c-0,2.439 0.5,25.636 1.75,30.138c1.251,4.502 6.316,32.452 6.316,32.452l-43.769,4.127c-0,-0 1.938,-12.193 1.813,-16.257c-0.313,-8.942 -2.751,-15.57 3.752,-19.759c4.376,-2.751 8.503,-1.438 13.193,-3.752c5.44,-2.688 6.69,-4.877 7.003,-6.377c0.187,-0.876 -1.188,-2.877 -9.629,0.25c-2.814,1.063 -8.504,1 -8.629,4.627c-0.063,3.064 3.877,9.691 -0.875,12.693c-0,-0 -5.44,12.818 -10.505,14.819c-4.377,1.688 -9.567,-2.939 -9.442,-9.004c0.125,-7.253 0.563,-21.134 3.877,-27.2c3.314,-6.065 12.38,-21.634 14.006,-22.885c1.626,-1.25 6.565,4.69 12.318,3.877c5.752,-0.813 8.129,-3.501 9.379,-6.315c1.251,-2.814 4.002,-15.569 4.002,-15.569Z" style="fill:url(#_Linear3);fill-rule:nonzero;"/><path d="M83.224,52.653c2.563,4.127 5.877,7.691 9.754,10.63c6.628,5.127 0.063,19.384 -0.25,26.512c-0.25,5.69 3.126,13.568 11.317,18.883c5.878,3.877 1.751,12.63 1.751,17.007c0,4.377 9.504,-6.19 9.88,-11.192c0.437,-6.19 -1.126,-10.567 -5.503,-15.569c-4.064,-4.69 -8.816,-22.26 -10.129,-30.576c-0.125,-0.876 -0.188,-1.688 -0.125,-2.564c0.125,-2.939 -0.25,-12.255 -8.629,-17.507c-10.004,-6.253 -16.257,-0.501 -20.322,2.938c-4.939,4.19 -6.94,15.882 -5.689,34.015c1.25,18.133 -1.876,28.45 -4.002,33.702c-4.877,11.943 8.378,3.564 10.817,-3.314c3.126,-8.816 5.315,-9.504 9.754,-16.382c1.751,-2.688 -0.562,-11.817 -2.501,-15.632c-3.689,-7.378 -5.815,-10.442 -5.815,-15.444c0,-5.002 5.94,-13.631 9.692,-15.507Z" style="fill:url(#_Linear4);fill-rule:nonzero;"/><path d="M85.162,85.043c0,-0 7.066,0.437 9.004,-4.065c0.188,-0.5 -1.125,13.756 -1.501,11.88c-0.5,-1.938 -7.503,-7.815 -7.503,-7.815Z" style="fill-opacity:0.07;fill-rule:nonzero;"/><path d="M72.719,117.994c0,0 -1.625,10.13 -2.501,14.757c-0.5,2.501 -0.813,5.002 -0.875,7.566c-0,-0 6.002,-7.504 7.941,-10.505c1.188,-1.876 -2.439,-0.938 -2.751,-7.816c-0.313,-6.878 -0.251,-11.317 -0.251,-11.317l-1.563,7.315Z" style="fill-opacity:0.07;fill-rule:nonzero;"/><path d="M73.219,150.571c0,0 5.378,-5.252 5.628,-8.003c0.313,-3.627 2.876,-3.439 2.876,-1.188c0,2.251 -4.002,19.071 -1.563,23.51c2.439,4.439 4.377,4.377 4.377,4.377l-13.131,0.938l1.813,-19.634Z" style="fill-opacity:0.07;fill-rule:nonzero;"/><path d="M84.474,169.204c0,0 0.751,13.381 -4.001,17.821c-9.692,9.066 -4.002,20.946 -8.316,26.136c-3.627,4.314 -4.565,16.757 -13.256,19.509c-3.439,1.125 -15.82,-6.441 -18.321,-7.316c-5.315,-1.813 -9.066,-12.005 -25.636,-17.258c-3.877,-1.25 10.192,0.063 10.192,0.063l30.513,12.63l15.757,-50.584l13.068,-1.001Z" style="fill-opacity:0.07;fill-rule:nonzero;"/><defs><linearGradient id="_Linear1" x1="0" y1="0" x2="1" y2="0" gradientUnits="userSpaceOnUse" gradientTransform="matrix(96.8643,0,0,96.8643,18.1249,231.823)"><stop offset="0" style="stop-color:#4b45bd;stop-opacity:1"/><stop offset="1" style="stop-color:#58caea;stop-opacity:1"/></linearGradient><linearGradient id="_Linear2" x1="0" y1="0" x2="1" y2="0" gradientUnits="userSpaceOnUse" gradientTransform="matrix(71.6639,0,0,71.6639,21.1342,86.3717)"><stop offset="0" style="stop-color:#f87b58;stop-opacity:1"/><stop offset="0.5" style="stop-color:#f8c548;stop-opacity:1"/><stop offset="1" style="stop-color:#f89c51;stop-opacity:1"/></linearGradient><linearGradient id="_Linear3" x1="0" y1="0" x2="1" y2="0" gradientUnits="userSpaceOnUse" gradientTransform="matrix(90.3582,-62.89,62.89,90.3582,64.3003,126.104)"><stop offset="0" style="stop-color:#e5a4ed;stop-opacity:1"/><stop offset="1" style="stop-color:#7a5bf5;stop-opacity:1"/></linearGradient><linearGradient id="_Linear4" x1="0" y1="0" x2="1" y2="0" gradientUnits="userSpaceOnUse" gradientTransform="matrix(55.5384,0,0,55.5384,60.2079,86.108)"><stop offset="0" style="stop-color:#f8c547;stop-opacity:1"/><stop offset="1" style="stop-color:#f71d69;stop-opacity:1"/></linearGradient></defs></svg>