<?xml version="1.0" encoding="UTF-8" standalone="no"?><!DOCTYPE svg PUBLIC "-//W3C//DTD SVG 1.1//EN" "http://www.w3.org/Graphics/SVG/1.1/DTD/svg11.dtd"><svg width="100%" height="100%" viewBox="0 0 88 271" version="1.1" xmlns="http://www.w3.org/2000/svg" xmlns:xlink="http://www.w3.org/1999/xlink" xml:space="preserve" xmlns:serif="http://www.serif.com/" style="fill-rule:evenodd;clip-rule:evenodd;stroke-linejoin:round;stroke-miterlimit:2;"><g><path d="M57.494,250.987l6.899,1.568c0,0 1.673,5.436 2.457,8.363c0.052,0.157 0.209,0.68 0.313,0.993c0.105,0.523 0.157,0.993 0.157,1.516c-0.157,2.613 -1.15,4.861 -3.449,6.011c-2.562,1.306 -4.548,2.508 -7.266,-0c-2.718,-2.509 -3.188,-4.077 -2.038,-8.415c1.15,-4.339 2.927,-9.983 2.927,-10.036" style="fill:#4b49bb;fill-rule:nonzero;"/><path d="M17.457,260.03c4.652,-1.464 6.638,-7.213 6.638,-7.213l9.356,-0.471c0,0 0.209,5.854 0.47,9.042c0.314,4.234 -0.47,6.116 -3.292,5.854c-3.764,-0.313 -19.13,1.046 -21.535,-0.47c-3.24,-1.934 3.973,-5.384 8.363,-6.742" style="fill:#4b49bb;fill-rule:nonzero;"/></g><path d="M71.92,119.065c-0,-0 3.502,4.808 4.599,17.771c1.098,12.962 -1.359,37.58 -2.509,42.336c-1.15,4.756 -5.749,49.236 -6.899,52.476c-1.15,3.241 -2.718,20.96 -2.718,20.96l-7.422,0.209c0,-0 -2.195,-23.102 -2.195,-29.218c0,-6.115 -3.084,-63.975 -2.875,-68.208c0.209,-4.234 -0.784,-2.875 -0.784,-2.875c0,-0 -6.481,20.698 -8.415,24.147c-1.934,3.45 -5.383,10.192 -5.383,10.192c-0,0 -0.784,21.691 -1.725,34.235c-0.941,12.545 -1.934,32.302 -1.934,32.302l-9.983,-0.209c0,-0 -2.3,-33.033 -2.3,-39.985c0,-6.951 -2.09,-23.625 -2.09,-25.559c-0,-1.933 6.481,-35.698 6.481,-35.698l4.547,-32.928l41.605,0.052Z" style="fill:url(#_Linear1);fill-rule:nonzero;"/><path d="M60.16,10.035c3.397,1.255 7.735,18.137 7.735,18.137l0.052,-0.052l1.882,1.882l-0.784,3.554l-3.293,55.664l-17.039,-3.658l-14.896,-15.785l-9.304,4.39c0,0 -0.731,20.228 -0.836,21.325c-0.104,1.098 -1.673,31.674 -1.673,33.66c-0.052,2.143 -9.146,11.761 -10.662,10.715c-4.495,-3.136 2.979,-8.937 4.756,-10.349c1.046,-0.836 3.293,-29.269 3.45,-32.614c0.157,-3.346 -5.175,-11.865 4.077,-23.103c6.742,-8.205 10.401,-29.269 16.046,-53.208c2.979,-12.439 4.756,-16.15 7.683,-16.15c2.666,-0 6.324,3.188 12.806,5.592" style="fill:url(#_Linear2);fill-rule:nonzero;"/><path d="M63.034,57.442c0.053,0.157 6.481,3.188 9.252,6.585c2.77,3.398 5.017,8.311 5.017,8.311c0,-0 4.077,9.617 6.899,16.725c1.516,3.816 6.482,19.444 0.523,20.019c-5.645,0.523 -18.137,-12.753 -20.07,-15.262l-2.143,-4.809c-0.157,-0.627 3.345,-7.108 3.24,-7.683c-0.104,-0.941 -8.258,-5.697 -9.512,-2.875c-0.419,0.941 -1.516,3.659 -1.83,4.495c-0.784,2.039 11.081,6.011 11.081,7.84c-0,2.248 0.993,10.558 2.613,14.635c1.62,4.077 4.077,13.746 4.077,13.746l-41.709,0.105c-0,-0 1.411,-18.555 0.836,-24.722c0,-0 -1.777,-20.228 -2.822,-22.214c-1.046,-1.986 -2.823,24.984 -2.561,30.524c0.209,3.868 -3.293,27.074 -4.286,27.911c-1.621,1.254 -5.436,-1.255 -5.436,-1.255c-0,0 0.157,-25.454 0.313,-29.687c0.157,-4.234 -0.104,-38.469 5.488,-44.637c5.593,-6.167 7.109,-6.01 11.761,-4.39c4.651,1.62 6.951,3.188 13.275,4.234c3.868,0.679 7.893,0.156 11.499,-1.412c-0.993,-3.606 1.098,2.509 0.837,0.837" style="fill:url(#_Linear3);fill-rule:nonzero;"/><path d="M56.867,0.471c-0,-0 8.31,0.313 10.662,8.415c2.352,8.101 2.718,19.495 2.77,21.272c0.105,1.882 -0.888,14.635 0.157,18.189c0.941,3.136 3.607,8.938 5.227,12.963c0.627,1.568 1.098,3.24 1.411,4.913l0.209,1.359c-0.418,1.411 -1.934,2.247 -3.397,1.777c-0.105,-0.053 -0.209,-0.053 -0.262,-0.105c-0.836,-0.366 -1.62,-0.784 -2.404,-1.254c-2.509,-1.516 -5.697,-5.541 -8.206,-6.795c-2.665,-1.307 -5.697,-7.37 -6.115,-7.84c-0.418,-0.47 -0.261,-1.986 -0.314,-3.45c-0.261,-7.578 1.15,-14.53 2.927,-18.189c1.777,-3.658 5.854,-10.819 3.032,-14.948c-2.823,-4.129 -8.729,-7.422 -8.99,-8.415c-0.261,-0.993 -0.418,3.972 -3.554,5.749c-3.136,1.777 -7.527,6.534 -7.527,7.579c0,1.045 -1.045,4.443 1.934,10.349c2.979,5.906 5.331,13.433 1.202,19.077c-4.129,5.645 -14.53,13.485 -15.262,15.263c-0.731,1.777 0,9.669 0.262,14.112c0.261,4.442 -8.415,-7.579 -8.102,-13.381c0.314,-5.801 -0.732,-8.31 5.175,-17.143c5.906,-8.834 9.774,-24.096 9.93,-27.807c0.157,-3.711 1.934,-13.955 5.488,-16.934c3.032,-2.509 3.711,-4.965 10.036,-4.965c1.254,-0 2.509,0.104 3.711,0.209" style="fill:url(#_Linear4);fill-rule:nonzero;"/><g><g><g opacity="0.07"><g><path d="M60.055,78.192c1.254,0.523 2.457,1.098 3.606,1.777l1.255,0.627c-0,0 13.276,13.851 12.701,13.119c-2.561,-3.188 -10.506,-20.123 -13.172,-24.043c-2.822,-4.076 -4.39,-2.456 -7.474,8.363" style="fill:#fff;fill-rule:nonzero;"/></g></g><g opacity="0.07"><path d="M60.682,252.503c-0.052,0.157 -0.052,0.314 -0.052,0.47c-0.052,1.15 -0,4.025 1.254,5.854c1.568,2.405 -2.143,7.684 -2.143,8.99c0,1.307 1.725,2.509 2.927,2.143c1.203,-0.366 6.22,-3.188 4.234,-9.251c-0.784,-2.457 -1.254,-4.6 -1.725,-5.958c-0.261,-0.68 -0.47,-1.359 -0.679,-2.039c-0.053,-0.313 -0.053,-0.627 -0.053,-0.941c0.053,-0.418 0.053,-0.888 0.105,-1.359c0.261,-2.352 10.192,-75.683 10.558,-78.505c0.314,-2.509 1.777,-18.032 1.62,-27.127c0.105,-0.784 0.105,-1.568 0.053,-2.299c-0,-0.209 -0.105,-1.098 -0.053,-1.464c-0.052,-0.836 -0.104,-1.672 -0.209,-2.509c0.157,-0.679 0.052,-0.679 0,-1.777c-0.052,-1.097 0,-1.725 -0.104,-2.404c-0.993,-6.168 -3.241,-13.171 -4.339,-15.158l-0.313,-1.097c-0,-0 -2.509,-9.304 -3.345,-11.029c-0.732,-1.568 -2.823,-9.774 -2.614,-11.498c0.105,-0.941 -3.24,-4.6 -3.24,-4.6l-0.68,-0.575c-0.313,-0.052 -0.679,0 -0.993,0.105c-0.731,0.313 -3.554,-2.143 -4.024,-0.575c-3.345,10.715 -4.704,15.262 1.202,21.638c5.906,6.377 0.47,12.074 0.366,16.569c-0.262,11.081 5.122,9.879 5.436,16.778c0.313,6.899 -1.203,11.865 -1.307,15.471c-0.261,11.865 -0.105,14.217 0.523,18.868c0.627,4.652 3.815,13.485 0.261,30.838c-3.554,17.353 -3.032,18.921 -2.666,28.747c0.366,9.826 0,13.694 0,13.694" style="fill-rule:nonzero;"/></g><path d="M66.17,73.227l-0.104,-0.053c-0.418,-0.209 -2.875,-1.463 -4.6,-2.143c-1.934,-0.784 -4.286,5.802 -4.861,7.109c-0.052,0.104 -0.052,0.104 0.366,0.156c1.411,0.157 2.823,0.419 4.182,0.784c1.986,0.471 4.233,2.039 4.338,2.091c0.104,0.052 0.679,-1.202 1.829,-4.129c0.261,-0.679 0.836,-2.457 0.314,-2.875l-1.464,-0.94Z" style="fill:#fff;fill-rule:nonzero;"/></g><path d="M51.17,38.26c-1.255,0.47 -2.718,0.157 -3.659,-0.837c-1.673,-1.672 0.627,4.13 0.261,5.436c-0.366,1.307 3.398,-4.599 3.398,-4.599Z" style="fill-opacity:0.07;fill-rule:nonzero;"/><path d="M62.512,88.541c-0,-0 -7.893,-5.175 -7.997,-4.966c-0.209,0.471 -0.889,2.352 -0.889,2.352c0,0 -0.627,1.203 -0.418,1.568c0.209,0.366 7.683,3.555 7.683,3.555c0.314,-0.053 0.575,-0.209 0.68,-0.471c0.366,-0.627 0.679,-1.306 0.941,-2.038Z" style="fill:#fff;fill-rule:nonzero;"/></g><defs><linearGradient id="_Linear1" x1="0" y1="0" x2="1" y2="0" gradientUnits="userSpaceOnUse" gradientTransform="matrix(-57.5084,0,0,57.5084,76.7949,186.202)"><stop offset="0" style="stop-color:#4b45bd;stop-opacity:1"/><stop offset="1" style="stop-color:#58caea;stop-opacity:1"/></linearGradient><linearGradient id="_Linear2" x1="0" y1="0" x2="1" y2="0" gradientUnits="userSpaceOnUse" gradientTransform="matrix(-59.9045,0,0,59.9045,69.829,72.1946)"><stop offset="0" style="stop-color:#f87b58;stop-opacity:1"/><stop offset="0.5" style="stop-color:#f8c548;stop-opacity:1"/><stop offset="1" style="stop-color:#f89c51;stop-opacity:1"/></linearGradient><linearGradient id="_Linear3" x1="0" y1="0" x2="1" y2="0" gradientUnits="userSpaceOnUse" gradientTransform="matrix(-71.3811,0,0,71.3811,87.5839,90.486)"><stop offset="0" style="stop-color:#e5a4ed;stop-opacity:1"/><stop offset="1" style="stop-color:#7a5bf5;stop-opacity:1"/></linearGradient><linearGradient id="_Linear4" x1="0" y1="0" x2="1" y2="0" gradientUnits="userSpaceOnUse" gradientTransform="matrix(-54.7843,0,0,54.7843,77.3032,40.8585)"><stop offset="0" style="stop-color:#f8c547;stop-opacity:1"/><stop offset="1" style="stop-color:#f71d69;stop-opacity:1"/></linearGradient></defs></svg>